<svg width="20" height="20" viewBox="0 0 20 20" fill="none" xmlns="http://www.w3.org/2000/svg">
<path d="M10.8334 19.1667V15.7875H9.16669V19.1667H10.8334Z" fill="#34A853"/>
<path d="M4.225 9.16667H2.54584C2.73535 10.8574 3.49381 12.4335 4.69682 13.6365C5.89982 14.8395 7.47595 15.598 9.16667 15.7875H10.8333C12.5239 15.5978 14.0998 14.8393 15.3027 13.6363C16.5055 12.4333 17.2639 10.8573 17.4533 9.16667H15.7733C15.5714 10.554 14.8768 11.8222 13.8165 12.7394C12.7562 13.6565 11.4011 14.1613 9.99917 14.1613C8.59724 14.1613 7.24217 13.6565 6.18186 12.7394C5.12156 11.8222 4.42691 10.554 4.225 9.16667Z" fill="url(#paint0_angular_1602_205)"/>
<path d="M9.99998 0.833328C10.5472 0.833328 11.089 0.941102 11.5945 1.1505C12.1 1.35989 12.5593 1.66681 12.9463 2.05372C13.3332 2.44063 13.6401 2.89996 13.8495 3.40548C14.0589 3.911 14.1666 4.45282 14.1666 5V8.33333C14.1666 9.4384 13.7277 10.4982 12.9463 11.2796C12.1649 12.061 11.105 12.5 9.99998 12.5C8.89491 12.5 7.8351 12.061 7.0537 11.2796C6.2723 10.4982 5.83331 9.4384 5.83331 8.33333V5C5.83331 3.89493 6.2723 2.83512 7.0537 2.05372C7.8351 1.27232 8.89491 0.833328 9.99998 0.833328Z" fill="#4285F4"/>
<defs>
<radialGradient id="paint0_angular_1602_205" cx="0" cy="0" r="1" gradientUnits="userSpaceOnUse" gradientTransform="translate(5.83334 12.5) rotate(135) scale(1.76777 3.88158)">
<stop stop-color="#F4B400"/>
<stop offset="0.645833" stop-color="#EA4335"/>
<stop offset="1" stop-color="#EA4335"/>
</radialGradient>
</defs>
</svg>
